<svg width="35" height="35" viewBox="0 0 35 35" fill="none" xmlns="http://www.w3.org/2000/svg">
<path d="M31.3542 17.4997C30.9167 17.4997 30.625 17.7913 30.625 18.2288V21.1455C30.625 21.583 30.9167 21.8747 31.3542 21.8747C31.7917 21.8747 32.0833 21.583 32.0833 21.1455V18.2288C32.0833 17.7913 31.7917 17.4997 31.3542 17.4997ZM30.8438 14.8018C30.6979 14.9476 30.625 15.0934 30.625 15.3122C30.625 15.3851 30.625 15.5309 30.6979 15.6038C30.7708 15.6768 30.7708 15.7497 30.8438 15.8226C30.9896 15.9684 31.2083 16.0413 31.3542 16.0413H31.5C31.5729 16.0413 31.5729 16.0413 31.6458 15.9684C31.7187 15.9684 31.7188 15.8955 31.7917 15.8955C31.8646 15.8955 31.8646 15.8226 31.9375 15.8226C32.0104 15.7497 32.0833 15.6768 32.0833 15.6038V15.3122C32.0833 15.0934 32.0104 14.9476 31.8646 14.8018C31.5729 14.5101 31.1354 14.5101 30.8438 14.8018Z" fill="#0D6EFD"/>
<path d="M32.0832 10.2087C32.0832 10.1357 32.0832 10.0628 32.0103 9.91699C31.9373 9.84408 31.9373 9.77116 31.8644 9.69824L23.1144 0.948242C23.0415 0.875326 22.9686 0.802409 22.8957 0.802409C22.8228 0.729492 22.6769 0.729492 22.604 0.729492H7.2915C4.88525 0.729492 2.9165 2.69824 2.9165 5.10449V29.8962C2.9165 32.3024 4.88525 34.2712 7.2915 34.2712H27.7082C30.1144 34.2712 32.0832 32.3024 32.0832 29.8962V24.0628C32.0832 23.6253 31.7915 23.3337 31.354 23.3337C30.9165 23.3337 30.6248 23.6253 30.6248 24.0628V29.8962C30.6248 31.5003 29.3123 32.8128 27.7082 32.8128H7.2915C5.68734 32.8128 4.37484 31.5003 4.37484 29.8962V5.10449C4.37484 3.50033 5.68734 2.18783 7.2915 2.18783H21.8748V6.56283C21.8748 8.96908 23.8436 10.9378 26.2498 10.9378H30.6248V12.3962C30.6248 12.8337 30.9165 13.1253 31.354 13.1253C31.7915 13.1253 32.0832 12.8337 32.0832 12.3962V10.2087ZM23.3332 6.56283V3.20866L29.604 9.47949H26.2498C24.6457 9.47949 23.3332 8.16699 23.3332 6.56283Z" fill="#0D6EFD"/>
<path d="M8.02067 10.2083H17.4998C17.9373 10.2083 18.229 9.91667 18.229 9.47917C18.229 9.04167 17.9373 8.75 17.4998 8.75H8.02067C7.58317 8.75 7.2915 9.04167 7.2915 9.47917C7.2915 9.91667 7.58317 10.2083 8.02067 10.2083ZM26.2498 16.7708H8.02067C7.58317 16.7708 7.2915 17.0625 7.2915 17.5C7.2915 17.9375 7.58317 18.2292 8.02067 18.2292H26.2498C26.6873 18.2292 26.979 17.9375 26.979 17.5C26.979 17.0625 26.6873 16.7708 26.2498 16.7708ZM26.2498 24.7917H8.02067C7.58317 24.7917 7.2915 25.0833 7.2915 25.5208C7.2915 25.9583 7.58317 26.25 8.02067 26.25H26.2498C26.6873 26.25 26.979 25.9583 26.979 25.5208C26.979 25.0833 26.6873 24.7917 26.2498 24.7917Z" fill="#0D6EFD"/>
</svg>
