<svg width="35" height="35" viewBox="0 0 35 35" fill="none" xmlns="http://www.w3.org/2000/svg">
<g clip-path="url(#clip0_28_328)">
<path d="M18.5938 16.9531H34.4531C34.7555 16.9531 35 16.7087 35 16.4062C35 7.34562 27.6544 0 18.5938 0C18.2913 0 18.0469 0.244453 18.0469 0.546875V16.4062C18.0469 16.7087 18.2913 16.9531 18.5938 16.9531ZM19.1406 1.10742C27.1616 1.38961 33.6104 7.83781 33.8926 15.8594H19.1406V1.10742Z" fill="#0D6EFD"/>
<path d="M34.4531 18.0469H19.6875C19.6634 18.0469 19.6427 18.0573 19.6191 18.06C19.5732 18.066 19.5273 18.0704 19.4835 18.0873C19.4409 18.1043 19.4053 18.1333 19.3692 18.1601C19.3495 18.1748 19.326 18.1825 19.308 18.1995C19.3069 18.2005 19.3063 18.2027 19.3052 18.2038C19.2582 18.2498 19.2221 18.305 19.1942 18.3652C19.192 18.3701 19.1866 18.3739 19.1844 18.3788C19.1756 18.3996 19.1762 18.4248 19.1702 18.4472C19.1576 18.4931 19.1423 18.5396 19.1417 18.5872L19.1406 18.5938C19.1406 18.6227 19.1527 18.6484 19.1576 18.6769C19.1641 18.7173 19.1663 18.7578 19.1816 18.7966C19.2008 18.8448 19.232 18.8841 19.2631 18.9241C19.2746 18.9394 19.2801 18.9585 19.2943 18.9727L19.2998 18.9782C19.3003 18.9793 19.3009 18.9798 19.302 18.9804L29.5515 29.5947C29.592 29.6368 29.6412 29.6636 29.6904 29.6904L30.1946 30.1946C33.1641 27.2256 35 23.1241 35 18.5938C35 18.2913 34.7555 18.0469 34.4531 18.0469ZM30.147 28.6371L20.9759 19.1406H33.892C33.7646 22.7702 32.375 26.0766 30.147 28.6371Z" fill="#0D6EFD"/>
<path d="M27.2491 29.4191C27.2491 29.4191 17.8259 19.2894 17.2895 18.7529C16.9597 18.4231 16.9531 17.8309 16.9531 17.8309V2.73438C16.9531 2.43195 16.7087 2.1875 16.4062 2.1875C7.34562 2.1875 0 9.53312 0 18.5938C0 27.6544 7.34562 35 16.4062 35C20.9366 35 25.0381 33.1641 28.0071 30.1946L27.277 29.4645C27.2661 29.4503 27.2623 29.4328 27.2491 29.4191ZM16.4062 33.9062C7.94938 33.9062 1.09375 27.0506 1.09375 18.5938C1.09375 10.3201 7.65625 3.58367 15.8594 3.29492C15.8594 3.29492 15.8594 17.5509 15.8594 18.0469C15.8594 18.5429 16.047 19.0367 16.415 19.4042C16.783 19.7717 26.4403 30.1547 26.4403 30.1547C23.753 32.4898 20.2459 33.9062 16.4062 33.9062Z" fill="#0D6EFD"/>
</g>
<defs>
<clipPath id="clip0_28_328">
<rect width="35" height="35" fill="white"/>
</clipPath>
</defs>
</svg>
