<svg width="691" height="800" viewBox="0 0 691 800" fill="none" xmlns="http://www.w3.org/2000/svg">
<g clip-path="url(#clip0_3_2)">
<mask id="mask0_3_2" style="mask-type:luminance" maskUnits="userSpaceOnUse" x="0" y="0" width="691" height="800">
<path d="M691 0H0V800H691V0Z" fill="white"/>
</mask>
<g mask="url(#mask0_3_2)">
<path d="M425.772 800V754.255C425.772 744.474 429.658 735.094 436.574 728.177C443.49 721.261 452.871 717.376 462.652 717.376H564.475C569.722 717.235 574.89 716.059 579.682 713.915C584.474 711.772 588.795 708.703 592.398 704.885C596.001 701.067 598.814 696.576 600.677 691.668C602.54 686.76 603.415 681.533 603.252 676.286V677.041C603.254 676.061 603.256 624.425 603.257 622.564C603.524 615.512 606.223 608.77 610.895 603.481C618.619 594.578 622.838 583.169 622.767 571.383L622.655 560.267C622.64 556.832 623.67 553.475 625.607 550.64C627.545 547.804 630.3 545.625 633.505 544.392H651.291C654.587 544.473 657.861 543.836 660.886 542.524C663.911 541.212 666.614 539.258 668.808 536.796C671.504 533.631 673.235 529.758 673.796 525.638C674.357 521.518 673.724 517.323 671.973 513.552C652.588 472.885 635.681 431.082 621.344 388.374C618.802 380.255 617.581 371.78 617.727 363.274L617.708 280.027C617.703 257.694 614.605 235.469 608.502 213.986L608.397 213.617C598.7 178.264 580.786 145.703 556.115 118.588C550.794 112.851 545.206 107.276 539.352 101.862C535.681 98.3277 531.941 94.8472 528.061 91.4829C472.368 43.0741 401.016 16.4937 327.225 16.6666C250.976 16.4754 177.059 42.9402 118.258 91.4832C67.6454 135.161 33.5171 194.855 21.5532 260.629C9.5892 326.403 20.5113 394.291 52.5017 452.994C89.7427 525.1 118.904 643.69 126.327 766.667V800" stroke="#4154F1" stroke-width="33.3333" stroke-miterlimit="10"/>
<path d="M207.333 300C234.948 300 257.333 277.614 257.333 250C257.333 222.386 234.948 200 207.333 200C179.719 200 157.333 222.386 157.333 250C157.333 277.614 179.719 300 207.333 300Z" stroke="#4154F1" stroke-width="33.3333" stroke-miterlimit="10"/>
<path d="M465.667 450C497.883 450 524 423.883 524 391.666C524 359.45 497.883 333.333 465.667 333.333C433.45 333.333 407.333 359.45 407.333 391.666C407.333 423.883 433.45 450 465.667 450Z" stroke="#4154F1" stroke-width="33.3333" stroke-miterlimit="10"/>
<path d="M257.333 566.667C275.743 566.667 290.667 551.743 290.667 533.333C290.667 514.924 275.743 500 257.333 500C238.924 500 224 514.924 224 533.333C224 551.743 238.924 566.667 257.333 566.667Z" stroke="#596DFB" stroke-width="33.3333" stroke-miterlimit="10"/>
<path d="M250.354 275.122L413.022 366.667" stroke="#4154F1" stroke-width="33.3333" stroke-miterlimit="10"/>
<path d="M286.059 516.667L418.551 425.959" stroke="#4154F1" stroke-width="33.3333" stroke-miterlimit="10"/>
<path d="M215.667 300L249 500" stroke="#4154F1" stroke-width="33.3333" stroke-miterlimit="10"/>
</g>
</g>
<defs>
<clipPath id="clip0_3_2">
<rect width="691" height="800" fill="white"/>
</clipPath>
</defs>
</svg>
