<svg width="35" height="28" viewBox="0 0 35 28" fill="none" xmlns="http://www.w3.org/2000/svg">
<path d="M32.6807 0H2.32654C1.0429 0 0 1.04297 0 2.32654V25.3875C0 26.6711 1.0429 27.7141 2.32654 27.7141H32.6734C33.957 27.7141 35 26.6712 35 25.3875V2.32654C35.0072 1.04297 33.9643 0 32.6807 0ZM32.5275 1.45868L18.5101 15.7168C17.9558 16.2565 17.0733 16.2638 16.5117 15.7314L2.4797 1.45868H32.5275ZM1.45861 25.2563V2.50158L13.0766 14.3165L1.45861 25.2563ZM2.52346 26.2554L14.105 15.3594L15.4834 16.767C16.0231 17.2921 16.7451 17.5911 17.4964 17.5911C18.2548 17.5911 18.9915 17.2921 19.5312 16.7597L20.5668 15.7022L32.4546 26.2554H2.52346ZM33.5486 25.2855L21.5951 14.652L33.5486 2.50158V25.2855Z" fill="#0D6EFD"/>
</svg>
