<svg width="35" height="35" viewBox="0 0 35 35" fill="none" xmlns="http://www.w3.org/2000/svg">
<g clip-path="url(#clip0_25_300)">
<path d="M22.362 5.22819C21.2244 6.36574 21.2244 8.21064 22.362 9.35543C22.9089 9.90233 23.6526 10.2086 24.4256 10.2086C26.0371 10.2086 27.3424 8.90335 27.3424 7.29178C27.3424 6.5188 27.0362 5.77502 26.4893 5.22812C25.3881 4.12707 23.463 4.12707 22.362 5.22819ZM25.4975 8.29083C25.4829 8.30539 25.4756 8.3127 25.461 8.32726C24.8849 8.88148 23.9735 8.88148 23.3974 8.32726C22.8213 7.75117 22.8213 6.83238 23.3974 6.26361C23.9588 5.68752 24.8776 5.66564 25.461 6.22717C26.0444 6.7887 26.059 7.70749 25.4975 8.29083Z" fill="#0D6EFD"/>
<path d="M33.869 9.54524L30.9886 1.05005V0.729222C30.9886 0.32814 30.6605 0 30.2594 0H20.6996C20.5027 0 20.3204 0.0801891 20.1819 0.211445L1.79876 18.6091C0.858095 19.5936 0.858095 21.1394 1.79876 22.1239L8.91577 29.1971C9.1856 29.4596 9.50642 29.6565 9.86375 29.7732C9.90019 29.9993 10.0388 30.1962 10.243 30.2982L19.2485 34.7536C20.4299 35.337 21.8664 34.8484 22.4498 33.6671C22.4571 33.6598 22.4571 33.6526 22.4643 33.6379L22.5008 33.565L30.2594 34.2723C31.3605 34.2723 32.447 33.2296 32.447 32.1577V13.1256C32.4397 13.0892 32.4325 13.0526 32.4251 13.0089L33.8325 10.0921C33.92 9.92438 33.9273 9.72025 33.869 9.54524ZM9.94387 28.1617L2.82693 21.0884C2.45504 20.6801 2.45504 20.053 2.82693 19.6446L20.9986 1.45838H29.5302V10.0994L11.3221 28.1617C10.9356 28.5336 10.3304 28.5336 9.94387 28.1617ZM30.9886 32.1577C30.9886 32.3838 30.6021 32.814 30.325 32.814L23.1715 32.165L30.9886 15.9841V32.1577ZM21.1517 33.0035C21.0423 33.2369 20.8454 33.4119 20.6048 33.4921C20.3715 33.5723 20.1162 33.5578 19.8974 33.4484L11.9565 29.5107C12.1023 29.4159 12.2335 29.3138 12.3502 29.1899L30.7698 10.9161C30.9084 10.7775 30.9886 10.5953 30.9886 10.3984V5.59294L32.3886 9.7275L21.1517 33.0035Z" fill="#0D6EFD"/>
</g>
<defs>
<clipPath id="clip0_25_300">
<rect width="35" height="35" fill="white"/>
</clipPath>
</defs>
</svg>
