<svg width="28" height="36" viewBox="0 0 28 36" fill="none" xmlns="http://www.w3.org/2000/svg">
<path d="M27.09 6.18497C27.09 3.33497 24.78 1.03497 21.93 1.03497H6.06999C3.21999 1.03497 0.909989 3.33497 0.909989 6.18497L0.915989 20.146H0.91199V29.808C0.91199 29.834 0.90299 30.12 0.91199 30.273C1.06199 32.911 3.37599 34.965 6.06899 34.965H22.657C25.104 34.965 27.088 32.981 27.088 30.534V21.26C27.088 21.252 27.09 21.245 27.09 21.238V6.18497Z" fill="white" stroke="#596DFB" stroke-width="1.5" stroke-miterlimit="10" stroke-linecap="round" stroke-linejoin="round"/>
<path d="M27.09 6.18497V21.238C27.09 24.088 24.78 26.398 21.93 26.398C21.93 26.398 5.4 26.388 5.32 26.388C2.99 26.388 1.08 28.198 0.920004 30.488L0.910004 6.18497C0.910004 3.33497 3.22 1.03497 6.07 1.03497H21.93C24.78 1.03497 27.09 3.33497 27.09 6.18497Z" fill="white" stroke="black" stroke-width="1.5" stroke-miterlimit="10" stroke-linecap="round" stroke-linejoin="round"/>
<path d="M5.36401 1.25V26.388" stroke="#596DFB" stroke-width="1.5" stroke-miterlimit="10" stroke-linecap="round" stroke-linejoin="round"/>
<path d="M12.554 10.618C12.554 8.73801 14.078 7.21301 15.959 7.21301C17.8 7.21301 19.364 8.77701 19.364 10.618C19.364 12.195 18.292 13.521 16.837 13.908C16.313 14.047 15.959 14.534 15.959 15.076V16.673" stroke="#596DFB" stroke-width="1.5" stroke-miterlimit="10" stroke-linecap="round" stroke-linejoin="round"/>
<path d="M5.90701 30.488H22.091" stroke="#596DFB" stroke-width="1.5" stroke-miterlimit="10" stroke-linecap="round" stroke-linejoin="round"/>
</svg>
