<svg width="35" height="35" viewBox="0 0 35 35" fill="none" xmlns="http://www.w3.org/2000/svg">
<g clip-path="url(#clip0_28_333)">
<path d="M34.3591 6.82599L28.1717 0.638643C27.3175 -0.215576 25.9334 -0.215576 25.0781 0.639189C25.0781 0.639189 0.662267 25.055 0.32922 25.388C-0.00328 25.72 1.22918e-06 26.2477 1.22918e-06 26.2477L0.000548104 33.9034C0.000548104 34.5077 0.490548 34.9972 1.09375 34.9977H3.82266C3.8243 34.9977 8.75 34.9977 8.75 34.9977C8.75 34.9977 9.27664 35.0021 9.60969 34.6685C9.94274 34.3349 34.3591 9.91856 34.3591 9.91856C35.2144 9.06434 35.2144 7.6813 34.3591 6.82599ZM20.4291 6.83419L22.3623 8.76794L3.80078 27.3305L1.86703 25.3968L20.4291 6.83419ZM4.57406 28.1038L23.1356 9.54177L25.4559 11.8622L6.89391 30.4236L4.57406 28.1038ZM1.64117 33.9034C1.33875 33.9034 1.09375 33.6595 1.0943 33.3571V32.4914L2.50633 33.9034H1.64117ZM4.05289 33.904L1.0943 30.9454L1.09485 26.1711L8.8282 33.9045H4.05289V33.904ZM9.60149 33.1307L7.66774 31.1969L26.2298 12.636L28.163 14.5692L9.60149 33.1307ZM28.9363 13.7959L21.2029 6.06091L22.7495 4.51435L30.4839 12.2488L28.9363 13.7959ZM33.5858 9.14638L31.2566 11.4755L23.5227 3.74106L25.8513 1.41302C26.279 0.985361 26.9719 0.985361 27.3984 1.41192L33.5858 7.59927C34.0129 8.02692 34.0124 8.71872 33.5858 9.14638Z" fill="#0D6EFD"/>
</g>
<defs>
<clipPath id="clip0_28_333">
<rect width="35" height="35" fill="white"/>
</clipPath>
</defs>
</svg>
