<svg width="675" height="375" viewBox="0 0 675 375" fill="none" xmlns="http://www.w3.org/2000/svg">
<path fill-rule="evenodd" clip-rule="evenodd" d="M12.5 362.5H662.5V12.5H12.5V362.5Z" fill="white"/>
<path fill-rule="evenodd" clip-rule="evenodd" d="M62.5 312.5H112.5V262.5H62.5V312.5Z" fill="#4BAADC"/>
<path fill-rule="evenodd" clip-rule="evenodd" d="M162.5 312.5H512.5V262.5H162.5V312.5Z" fill="#4BAADC"/>
<path fill-rule="evenodd" clip-rule="evenodd" d="M62.5 212.5H112.5V162.5H62.5V212.5Z" fill="#4BAADC"/>
<path fill-rule="evenodd" clip-rule="evenodd" d="M62.5 112.5H112.5V62.5H62.5V112.5Z" fill="#4BAADC"/>
<path fill-rule="evenodd" clip-rule="evenodd" d="M162.5 212.5H212.5V162.5H162.5V212.5Z" fill="#4BAADC"/>
<path fill-rule="evenodd" clip-rule="evenodd" d="M162.5 112.5H212.5V62.5H162.5V112.5Z" fill="#4BAADC"/>
<path fill-rule="evenodd" clip-rule="evenodd" d="M262.5 212.5H312.5V162.5H262.5V212.5Z" fill="#4BAADC"/>
<path fill-rule="evenodd" clip-rule="evenodd" d="M262.5 112.5H312.5V62.5H262.5V112.5Z" fill="#4BAADC"/>
<path fill-rule="evenodd" clip-rule="evenodd" d="M362.5 212.5H412.5V162.5H362.5V212.5Z" fill="#4BAADC"/>
<path fill-rule="evenodd" clip-rule="evenodd" d="M362.5 112.5H412.5V62.5H362.5V112.5Z" fill="#4BAADC"/>
<path fill-rule="evenodd" clip-rule="evenodd" d="M462.5 212.5H512.5V162.5H462.5V212.5Z" fill="#4BAADC"/>
<path fill-rule="evenodd" clip-rule="evenodd" d="M462.5 112.5H512.5V62.5H462.5V112.5Z" fill="#4BAADC"/>
<path fill-rule="evenodd" clip-rule="evenodd" d="M562.5 212.5H612.5V162.5H562.5V212.5Z" fill="#4BAADC"/>
<path fill-rule="evenodd" clip-rule="evenodd" d="M562.5 312.5H612.5V262.5H562.5V312.5Z" fill="#4BAADC"/>
<path fill-rule="evenodd" clip-rule="evenodd" d="M562.5 112.5H612.5V62.5H562.5V112.5Z" fill="#4BAADC"/>
<path fill-rule="evenodd" clip-rule="evenodd" d="M12.5 362.5H662.5V12.5H12.5V362.5Z" stroke="#1E69A0" stroke-width="25" stroke-linecap="round" stroke-linejoin="round"/>
<path fill-rule="evenodd" clip-rule="evenodd" d="M62.5 312.5H112.5V262.5H62.5V312.5Z" stroke="#1E69A0" stroke-width="25" stroke-linecap="round" stroke-linejoin="round"/>
<path fill-rule="evenodd" clip-rule="evenodd" d="M162.5 312.5H512.5V262.5H162.5V312.5Z" stroke="#1E69A0" stroke-width="25" stroke-linecap="round" stroke-linejoin="round"/>
<path fill-rule="evenodd" clip-rule="evenodd" d="M62.5 212.5H112.5V162.5H62.5V212.5Z" stroke="#1E69A0" stroke-width="25" stroke-linecap="round" stroke-linejoin="round"/>
<path fill-rule="evenodd" clip-rule="evenodd" d="M62.5 112.5H112.5V62.5H62.5V112.5Z" stroke="#1E69A0" stroke-width="25" stroke-linecap="round" stroke-linejoin="round"/>
<path fill-rule="evenodd" clip-rule="evenodd" d="M162.5 212.5H212.5V162.5H162.5V212.5Z" stroke="#1E69A0" stroke-width="25" stroke-linecap="round" stroke-linejoin="round"/>
<path fill-rule="evenodd" clip-rule="evenodd" d="M162.5 112.5H212.5V62.5H162.5V112.5Z" stroke="#1E69A0" stroke-width="25" stroke-linecap="round" stroke-linejoin="round"/>
<path fill-rule="evenodd" clip-rule="evenodd" d="M262.5 212.5H312.5V162.5H262.5V212.5Z" stroke="#1E69A0" stroke-width="25" stroke-linecap="round" stroke-linejoin="round"/>
<path fill-rule="evenodd" clip-rule="evenodd" d="M262.5 112.5H312.5V62.5H262.5V112.5Z" stroke="#1E69A0" stroke-width="25" stroke-linecap="round" stroke-linejoin="round"/>
<path fill-rule="evenodd" clip-rule="evenodd" d="M362.5 212.5H412.5V162.5H362.5V212.5Z" stroke="#1E69A0" stroke-width="25" stroke-linecap="round" stroke-linejoin="round"/>
<path fill-rule="evenodd" clip-rule="evenodd" d="M362.5 112.5H412.5V62.5H362.5V112.5Z" stroke="#1E69A0" stroke-width="25" stroke-linecap="round" stroke-linejoin="round"/>
<path fill-rule="evenodd" clip-rule="evenodd" d="M462.5 212.5H512.5V162.5H462.5V212.5Z" stroke="#1E69A0" stroke-width="25" stroke-linecap="round" stroke-linejoin="round"/>
<path fill-rule="evenodd" clip-rule="evenodd" d="M462.5 112.5H512.5V62.5H462.5V112.5Z" stroke="#1E69A0" stroke-width="25" stroke-linecap="round" stroke-linejoin="round"/>
<path fill-rule="evenodd" clip-rule="evenodd" d="M562.5 212.5H612.5V162.5H562.5V212.5Z" stroke="#1E69A0" stroke-width="25" stroke-linecap="round" stroke-linejoin="round"/>
<path fill-rule="evenodd" clip-rule="evenodd" d="M562.5 312.5H612.5V262.5H562.5V312.5Z" stroke="#1E69A0" stroke-width="25" stroke-linecap="round" stroke-linejoin="round"/>
<path fill-rule="evenodd" clip-rule="evenodd" d="M562.5 112.5H612.5V62.5H562.5V112.5Z" stroke="#1E69A0" stroke-width="25" stroke-linecap="round" stroke-linejoin="round"/>
</svg>
