<svg width="29" height="35" viewBox="0 0 29 35" fill="none" xmlns="http://www.w3.org/2000/svg">
<path d="M23.0801 22.3171C23.1774 22.5482 23.4189 22.6956 23.6698 22.6704C23.9102 22.6463 24.1138 22.4698 24.1729 22.2361C24.2345 21.9929 24.1248 21.7293 23.9095 21.6011C23.6828 21.4659 23.3929 21.5048 23.2048 21.6876C23.0439 21.8535 22.9911 22.1021 23.0801 22.3171C23.0947 22.3517 23.0655 22.2818 23.0801 22.3171Z" fill="#0D6EFD"/>
<path d="M23.0801 22.3171C23.1774 22.5482 23.4189 22.6956 23.6698 22.6704C23.9102 22.6463 24.1138 22.4698 24.1729 22.2361C24.2345 21.9929 24.1248 21.7293 23.9095 21.6011C23.6828 21.4659 23.3929 21.5048 23.2048 21.6876C23.0439 21.8535 22.9911 22.1021 23.0801 22.3171ZM23.0801 22.3171C23.0655 22.2818 23.0947 22.3517 23.0801 22.3171Z" stroke="#0D6EFD" stroke-width="0.448"/>
<path d="M25.6144 22.7254C25.3642 22.5279 25.0012 22.5705 24.8038 22.8205C24.6062 23.0706 24.6487 23.4336 24.8988 23.6312C25.8592 24.3899 27.0041 25.635 27.0041 27.2574C27.0041 28.2472 26.575 29.2116 25.7643 30.0914L18.317 25.8949C18.3276 25.8077 18.3336 25.7191 18.3336 25.6291V20.991C19.5362 21.1978 20.6721 21.5004 21.7167 21.8952C21.7839 21.9206 21.8528 21.9326 21.9206 21.9326C22.1537 21.9326 22.3733 21.7903 22.4606 21.5593C22.5733 21.2612 22.423 20.9281 22.1248 20.8155C20.9547 20.3732 19.6812 20.0397 18.3336 19.8203V19.289H18.6957C19.7689 19.289 20.6421 18.4159 20.6421 17.3427V11.5436C20.6421 9.43298 19.1775 7.65899 17.2115 7.18191C18.0647 6.42927 18.6044 5.32905 18.6044 4.10455C18.6044 1.84124 16.7631 0 14.4999 0C12.2367 0 10.3955 1.84124 10.3955 4.1044C10.3955 5.32889 10.9351 6.42911 11.7883 7.18175C9.82229 7.65884 8.35764 9.4329 8.35764 11.5435V17.3426C8.35764 18.4158 9.23078 19.289 10.304 19.289H10.6661V19.8194C8.01383 20.2537 5.61994 21.1468 3.88242 22.3568C1.92129 23.7225 0.841309 25.4628 0.841309 27.2573C0.841309 29.3918 2.30842 31.371 4.97256 32.8303C7.52682 34.2294 10.9104 34.9999 14.4999 34.9999C18.0894 34.9999 21.4729 34.2294 24.0271 32.8303C26.6913 31.371 28.1584 29.3918 28.1584 27.2573C28.1583 25.6073 27.2786 24.0403 25.6144 22.7254ZM11.5497 4.1044C11.5497 2.47769 12.8732 1.15424 14.4999 1.15424C16.1267 1.15424 17.4501 2.47769 17.4501 4.1044C17.4501 5.73111 16.1267 7.05456 14.4999 7.05456C12.8733 7.05456 11.5497 5.73111 11.5497 4.1044ZM9.51195 17.3426V11.5435C9.51195 9.70477 11.0078 8.20887 12.8466 8.20887H16.1532C17.992 8.20887 19.4879 9.70484 19.4879 11.5435V17.3426C19.4879 17.7794 19.1325 18.1347 18.6958 18.1347H18.3337V11.7358C18.3337 11.4171 18.0753 11.1587 17.7565 11.1587C17.4377 11.1587 17.1794 11.4171 17.1794 11.7358V25.629C17.1794 26.2086 16.7079 26.6802 16.1283 26.6802C15.5486 26.6802 15.0771 26.2086 15.0771 25.629V18.7118C15.0771 18.393 14.8188 18.1346 14.5 18.1346C14.1812 18.1346 13.9228 18.393 13.9228 18.7118V25.629C13.9228 26.2086 13.4513 26.6802 12.8717 26.6802C12.2921 26.6802 11.8205 26.2086 11.8205 25.629V11.7359C11.8205 11.4172 11.5622 11.1588 11.2434 11.1588C10.9246 11.1588 10.6663 11.4172 10.6663 11.7359V18.1348H10.3041C9.86731 18.1347 9.51195 17.7794 9.51195 17.3426ZM5.52714 31.818C3.24974 30.5706 1.99555 28.9509 1.99555 27.2573C1.99555 25.4555 3.38033 24.113 4.54211 23.304C6.10102 22.2184 8.25699 21.4074 10.6662 20.9907V25.629C10.6662 26.4739 11.1441 27.2091 11.8437 27.5793L21.1495 32.8235C19.1738 33.4893 16.8895 33.8457 14.4999 33.8457C11.1008 33.8458 7.91426 33.1256 5.52714 31.818ZM23.4726 31.818C23.1735 31.9818 22.8617 32.1364 22.5387 32.2816L14.045 27.4951C14.2132 27.3889 14.3665 27.2611 14.5 27.1148C14.9036 27.5567 15.4841 27.8344 16.1283 27.8344C16.8396 27.8344 17.4729 27.4956 17.8764 26.9713L24.8669 30.9105C24.4568 31.2299 23.9916 31.5337 23.4726 31.818Z" fill="#0D6EFD" stroke="#0D6EFD" stroke-width="0.448"/>
</svg>
