<svg width="35" height="35" viewBox="0 0 35 35" fill="none" xmlns="http://www.w3.org/2000/svg">
<g clip-path="url(#clip0_25_286)">
<path d="M29.4175 15.7959H5.58307C3.55272 15.7959 1.90137 17.4475 1.90137 19.4779V22.8879V23.98L2.98186 24.1346C3.60632 24.2242 4.07766 24.7675 4.07766 25.3981C4.07766 26.0288 3.60659 26.5721 2.9824 26.6616L1.90137 26.8162V27.9084V31.319C1.90137 33.3488 3.55272 35.0004 5.58307 35.0004H29.4175C31.4478 35.0004 33.0994 33.3488 33.0994 31.319V27.9313V26.729L31.8983 26.6728C31.2159 26.6411 30.6809 26.0811 30.6809 25.3982C30.6809 24.7158 31.2159 24.1558 31.8988 24.1236L33.0994 24.0668V22.8651V19.4779C33.0994 17.4475 31.4478 15.7959 29.4175 15.7959ZM31.8393 22.8651C30.4936 22.9291 29.4213 24.0368 29.4213 25.3982C29.4213 26.7601 30.4936 27.8684 31.8393 27.9313V31.319C31.8393 32.6565 30.7548 33.7408 29.4175 33.7408H5.58307C4.24534 33.7408 3.16096 32.6565 3.16096 31.319V27.9084C4.39081 27.7321 5.33725 26.6772 5.33725 25.3981C5.33725 24.1196 4.39074 23.0647 3.16096 22.8879V19.4779C3.16096 18.1399 4.24534 17.0555 5.58307 17.0555H29.4175C30.7548 17.0555 31.8393 18.1399 31.8393 19.4779V22.8651Z" fill="#0D6EFD"/>
<path d="M9.96758 30.0381H9.13428V32.2119H9.96758V30.0381Z" fill="#0D6EFD"/>
<path d="M9.96758 26.2197H9.13428V28.393H9.96758V26.2197Z" fill="#0D6EFD"/>
<path d="M9.96758 22.4014H9.13428V24.5752H9.96758V22.4014Z" fill="#0D6EFD"/>
<path d="M9.96758 18.583H9.13428V20.7568H9.96758V18.583Z" fill="#0D6EFD"/>
<path d="M7.6047 12.3564L6.87646 12.7613L7.93337 14.6604L8.66133 14.2555L7.6047 12.3564Z" fill="#0D6EFD"/>
<path d="M34.0103 12.238L32.3632 9.27733L31.7781 8.22733L30.7015 8.76231C30.0899 9.06596 29.3502 8.83682 29.0187 8.24011C28.6862 7.64395 28.882 6.89432 29.4625 6.53454L30.4846 5.90112L29.8996 4.85058L28.253 1.89103C27.2659 0.117169 25.0198 -0.523495 23.2452 0.464162L2.41798 12.0517C0.643717 13.0388 0.00366809 15.2854 0.990777 17.0594L1.05059 17.1673C1.27413 16.7302 1.5585 16.3304 1.89305 15.9772C1.56472 14.9079 2.0135 13.7184 3.03028 13.1522L23.8581 1.56461C25.027 0.913966 26.5018 1.33438 27.1525 2.50332L28.7991 5.46342C27.654 6.17299 27.2559 7.66336 27.9176 8.85281C28.5794 10.0423 30.0553 10.4895 31.2621 9.88996L32.9092 12.8507C33.4064 13.7432 33.274 14.8121 32.6651 15.5578C32.9916 15.8286 33.2796 16.1429 33.5298 16.4854C34.5487 15.3483 34.7933 13.6456 34.0103 12.238Z" fill="#0D6EFD"/>
</g>
<defs>
<clipPath id="clip0_25_286">
<rect width="35" height="35" fill="white"/>
</clipPath>
</defs>
</svg>
